<svg width="159" height="145" viewBox="0 0 159 145" fill="none" xmlns="http://www.w3.org/2000/svg">
<mask id="mask0_4_26" style="mask-type:luminance" maskUnits="userSpaceOnUse" x="0" y="0" width="159" height="145">
<path d="M158.06 0H0V144.686H158.06V0Z" fill="white"/>
</mask>
<g mask="url(#mask0_4_26)">
<path d="M135.53 23.9452L79.0259 144.685L22.5372 23.9575C29.4132 30.3559 38.0435 35.507 47.8109 39.0427C57.5783 42.5785 68.2414 44.4112 79.0376 44.4102C89.8339 44.4089 100.496 42.5737 110.263 39.036C120.029 35.4981 128.657 30.345 135.53 23.9452Z" fill="url(#paint0_linear_4_26)"/>
<g style="mix-blend-mode:multiply" opacity="0.08">
<path d="M135.53 23.9452L79.0259 144.685L22.5372 23.9575C29.4024 30.3631 38.0289 35.5195 47.7964 39.0559C57.5638 42.5924 68.2292 44.4209 79.0259 44.41C58.5846 44.41 47.3109 42.5225 41.1633 40.6581L79.0259 136.131L117.706 40.3989C111.766 42.337 100.397 44.41 79.0259 44.41C89.8263 44.42 100.495 42.59 110.266 39.0513C120.036 35.5128 128.664 30.3537 135.53 23.9452Z" fill="black"/>
</g>
<path d="M147.603 72.9492L79.0247 144.686L83.9375 134.193C83.9554 134.167 83.9662 134.137 83.9694 134.107L135.529 23.9454L137.263 20.2179L146.286 0.950631L146.671 0.136469L146.737 0L146.769 0.153338L147.011 1.05336L148.359 6.34936L153.641 26.9751C153.644 27.0331 153.654 27.0906 153.673 27.1469L157.064 40.3669C157.66 42.6849 157.988 45.0391 158.043 47.4016C158.344 56.5717 154.672 65.5588 147.603 72.9492Z" fill="url(#paint1_linear_4_26)"/>
<g style="mix-blend-mode:screen" opacity="0.25">
<path d="M152.371 34.8072L89.5237 129.528L138.546 24.7841L140.28 21.0444L145.819 9.2381L152.371 34.8072Z" fill="white"/>
</g>
<g style="mix-blend-mode:screen" opacity="0.3">
<path d="M153.672 27.1423C152.356 22.6497 151.079 18.1449 149.819 13.6263C148.712 9.75169 147.625 5.87557 146.575 1.98716L139.794 17.021L132.054 33.832L124.299 50.6307C121.73 56.2348 119.031 61.8022 116.398 67.3926L108.472 84.1422C105.854 89.7341 103.086 95.2877 100.411 100.855C97.6823 106.421 95.0256 112.001 92.255 117.543C89.4845 123.086 86.7637 128.664 83.9373 134.193C83.9551 134.167 83.966 134.137 83.9692 134.107L135.529 23.9453L137.262 20.2179L146.286 0.950631C146.206 0.666972 146.143 0.383325 146.063 0.0996674L146.671 0.136469L146.737 0L146.769 0.153338L147.395 0.19014L147.01 1.05336L148.359 6.34936L153.641 26.9751C153.644 27.0316 153.654 27.0875 153.672 27.1423Z" fill="white"/>
</g>
<g style="mix-blend-mode:multiply" opacity="0.2">
<path d="M147.603 72.9491L79.0247 144.685C81.6736 141.66 84.3863 138.661 87.0851 135.662C89.7838 132.663 92.5285 129.682 95.2632 126.714L103.501 117.79L111.819 108.915C117.39 103.028 122.989 97.1275 128.63 91.2826L137.109 82.5076C139.965 79.5943 142.792 76.6688 145.686 73.7678L145.702 73.7433L145.718 73.731C146.698 72.8169 147.61 71.8606 148.449 70.8668C149.3 69.8549 150.102 68.8306 150.842 67.7696C151.582 66.7086 152.272 65.6337 152.915 64.5359L153.814 62.8692C154.119 62.3142 154.359 61.7455 154.632 61.1828C154.905 60.62 155.163 60.0464 155.388 59.4669C155.613 58.8873 155.869 58.3201 156.062 57.739L156.623 55.9742C156.818 55.3883 156.974 54.7952 157.089 54.1971C157.217 53.6037 157.411 53.0117 157.488 52.4076L157.762 50.6044C157.939 49.5434 157.971 48.4824 158.051 47.4075C158.348 56.5765 154.673 65.5611 147.603 72.9491Z" fill="black"/>
</g>
<path d="M10.4538 72.9492L79.0341 144.687L74.1193 134.195C74.1013 134.168 74.0904 134.139 74.0874 134.109L22.5295 23.9454L20.7942 20.2179L11.7702 0.950631L11.3853 0.136469L11.3215 0L11.2895 0.153338L11.0482 1.05336L9.6998 6.34936L4.41597 26.9705C4.41318 27.0285 4.40247 27.086 4.38404 27.1423L0.993129 40.3623C0.397929 42.6804 0.0708624 45.0345 0.015752 47.397C-0.287794 56.5685 3.38412 65.5574 10.4538 72.9492Z" fill="url(#paint2_linear_4_26)"/>
<g style="mix-blend-mode:screen" opacity="0.25">
<path d="M5.68401 34.8072L68.5316 129.528L19.509 24.7856L17.7756 21.0459L12.2364 9.23959L5.68401 34.8072Z" fill="white"/>
</g>
<g style="mix-blend-mode:screen" opacity="0.3">
<path d="M4.38281 27.1423C5.69929 22.6497 6.97585 18.1449 8.23647 13.6263C9.3455 9.75221 10.4266 5.87251 11.4798 1.98716L18.2616 17.021L26.0029 33.832L33.7582 50.6307C36.3273 56.2348 39.0241 61.8022 41.657 67.3926L49.5838 84.1422C52.2008 89.7341 54.9693 95.2877 57.6442 100.855C60.3749 106.421 63.0297 112.001 65.8023 117.543C68.5749 123.086 71.2936 128.664 74.118 134.193C74.1001 134.167 74.0891 134.137 74.0861 134.107L22.5283 23.9453L20.7929 20.2179L11.769 0.950631C11.8488 0.666972 11.9146 0.383325 11.9944 0.0996674L11.3841 0.136469L11.3202 0L11.2883 0.153338L10.662 0.19014L11.047 1.05336L9.69857 6.34936L4.41473 26.9705C4.41193 27.0285 4.40124 27.086 4.38281 27.1423Z" fill="white"/>
</g>
<g style="mix-blend-mode:multiply" opacity="0.2">
<path d="M10.4531 72.9492L79.0335 144.687C76.3826 141.662 73.6698 138.663 70.9731 135.664C68.2761 132.665 65.5296 129.684 62.795 126.715L54.559 117.792L46.2411 108.917C40.6681 103.029 35.081 97.1292 29.4282 91.2843L20.9509 82.5093C18.0926 79.596 15.2662 76.6705 12.374 73.7695L12.358 73.745L12.3421 73.7327C11.362 72.8189 10.4509 71.8626 9.61336 70.8686C8.76165 69.8566 7.9578 68.8323 7.21978 67.7713C6.48175 66.7103 5.78961 65.6354 5.14733 64.5376L4.24973 62.8709C3.94455 62.3159 3.7032 61.747 3.42993 61.1843C3.15666 60.6216 2.90135 60.0481 2.67595 59.4686C2.45055 58.889 2.19324 58.3217 2.00176 57.7405L1.43926 55.9757C1.2439 55.39 1.08811 54.7968 0.972511 54.1987C0.844853 53.6053 0.651369 53.0134 0.573577 52.4093L0.300308 50.6062C0.124778 49.5451 0.100848 48.4841 0.013083 47.4093C-0.286327 56.5769 3.38613 65.5609 10.4531 72.9492Z" fill="black"/>
</g>
</g>
<defs>
<linearGradient id="paint0_linear_4_26" x1="-208.647" y1="704.558" x2="-208.647" y2="608.812" gradientUnits="userSpaceOnUse">
<stop stop-color="#EB643F"/>
<stop offset="1" stop-color="#964C9A"/>
</linearGradient>
<linearGradient id="paint1_linear_4_26" x1="-169.226" y1="564.274" x2="-169.226" y2="707.079" gradientUnits="userSpaceOnUse">
<stop stop-color="#FCC400"/>
<stop offset="0.162" stop-color="#FBC000"/>
<stop offset="0.307" stop-color="#FBB500"/>
<stop offset="0.446" stop-color="#FBA300"/>
<stop offset="0.581" stop-color="#FA8900"/>
<stop offset="0.712" stop-color="#FA6800"/>
<stop offset="0.842" stop-color="#F93F00"/>
<stop offset="0.967" stop-color="#F81000"/>
<stop offset="1" stop-color="#F80300"/>
</linearGradient>
<linearGradient id="paint2_linear_4_26" x1="-4043.94" y1="564.28" x2="-4043.94" y2="707.086" gradientUnits="userSpaceOnUse">
<stop stop-color="#FCC400"/>
<stop offset="0.162" stop-color="#FBC000"/>
<stop offset="0.307" stop-color="#FBB500"/>
<stop offset="0.446" stop-color="#FBA300"/>
<stop offset="0.581" stop-color="#FA8900"/>
<stop offset="0.712" stop-color="#FA6800"/>
<stop offset="0.842" stop-color="#F93F00"/>
<stop offset="0.967" stop-color="#F81000"/>
<stop offset="1" stop-color="#F80300"/>
</linearGradient>
</defs>
</svg>
